HIERARCHY
ROOT root
{
	OFFSET	0	13.1	24.9
	CHANNELS 6  Xposition Yposition Zposition Xrotation Yrotation Zrotation
	JOINT spine_1
	{
		OFFSET	0	9.99999	0
		CHANNELS 3  Xrotation Yrotation Zrotation
		JOINT spine_2
		{
			OFFSET	0	112	-10
			CHANNELS 3  Xrotation Yrotation Zrotation
			JOINT spine_3
			{
				OFFSET	0	206.5	19.3
				CHANNELS 3  Xrotation Yrotation Zrotation
				JOINT spine_4
				{
					OFFSET	0	110.4	14.6
					CHANNELS 3  Xrotation Yrotation Zrotation
					JOINT neck_1
					{
						OFFSET	0	71.8	-50.3
						CHANNELS 3  Xrotation Yrotation Zrotation
						JOINT neck_2
						{
							OFFSET	0	86.2	-25.8
							CHANNELS 3  Xrotation Yrotation Zrotation
							JOINT head_ee
							{
								OFFSET	0	179.8	-8.7
								CHANNELS 3  Xrotation Yrotation Zrotation
								End Site
								{
									OFFSET	1	0	0
								}
							}
						}
					}
					JOINT left_clavicle
					{
						OFFSET	-43.2	22.4	-70.8
						CHANNELS 3  Xrotation Yrotation Zrotation
						JOINT left_shoulder
						{
							OFFSET	-93.9	-5.79999	48.7
							CHANNELS 3  Xrotation Yrotation Zrotation
							JOINT left_elbow
							{
								OFFSET	-291.4	-30.8	15.2
								CHANNELS 3  Xrotation Yrotation Zrotation
								JOINT left_lowarm_twist
								{
									OFFSET	-110.7	-3.89999	13.6
									CHANNELS 3  Xrotation Yrotation Zrotation
									JOINT left_hand
									{
										OFFSET	-110.7	-3.89999	13.6
										CHANNELS 3  Xrotation Yrotation Zrotation
										JOINT left_ee
										{
											OFFSET	-80.8	-5.10001	12.1
											CHANNELS 3  Xrotation Yrotation Zrotation
											End Site
											{
												OFFSET	1	0	0
											}
										}
									}
								}
							}
						}
					}
					JOINT right_clavicle
					{
						OFFSET	43.2	22.4	-70.8
						CHANNELS 3  Xrotation Yrotation Zrotation
						JOINT right_shoulder
						{
							OFFSET	93.9	-5.79999	48.7
							CHANNELS 3  Xrotation Yrotation Zrotation
							JOINT right_elbow
							{
								OFFSET	291.4	-30.8	15.2
								CHANNELS 3  Xrotation Yrotation Zrotation
								JOINT right_lowarm_twist
								{
									OFFSET	110.7	-3.89999	13.6
									CHANNELS 3  Xrotation Yrotation Zrotation
									JOINT right_hand
									{
										OFFSET	110.7	-3.89999	13.6
										CHANNELS 3  Xrotation Yrotation Zrotation
										JOINT right_ee
										{
											OFFSET	80.8	-5.10001	12.1
											CHANNELS 3  Xrotation Yrotation Zrotation
											End Site
											{
												OFFSET	1	0	0
											}
										}
									}
								}
							}
						}
					}
				}
			}
		}
	}
	JOINT left_hip
	{
		OFFSET	-82.8	-127.5	0.300001
		CHANNELS 3  Xrotation Yrotation Zrotation
		JOINT left_knee
		{
			OFFSET	-28.2	-396.7	2.2
			CHANNELS 3  Xrotation Yrotation Zrotation
			JOINT left_ankle
			{
				OFFSET	-11.7	-411.3	35.4
				CHANNELS 3  Xrotation Yrotation Zrotation
				JOINT left_toes
				{
					OFFSET	0	-60	-88.6
					CHANNELS 3  Xrotation Yrotation Zrotation
					JOINT left_foot_ee
					{
						OFFSET	-22.5	-16.5	-42.2
						CHANNELS 3  Xrotation Yrotation Zrotation
						End Site
						{
							OFFSET	1	0	0
						}
					}
				}
			}
		}
	}
	JOINT right_hip
	{
		OFFSET	82.8	-127.5	0.300001
		CHANNELS 3  Xrotation Yrotation Zrotation
		JOINT right_knee
		{
			OFFSET	28.2	-396.7	2.2
			CHANNELS 3  Xrotation Yrotation Zrotation
			JOINT right_ankle
			{
				OFFSET	11.7	-411.3	35.4
				CHANNELS 3  Xrotation Yrotation Zrotation
				JOINT right_toes
				{
					OFFSET	0	-60	-88.6
					CHANNELS 3  Xrotation Yrotation Zrotation
					JOINT right_foot_ee
					{
						OFFSET	22.5	-16.5	-42.2
						CHANNELS 3  Xrotation Yrotation Zrotation
						End Site
						{
							OFFSET	1	0	0
						}
					}
				}
			}
		}
	}
}
MOTION
Frames: 9
Frame Time: 0.02
3534.18160194 734.003 -1496.55186567 4.13812376397 40.6646499279 -8.823978735 -0.433525 1.36089 3.55553 -0.427205 1.13204 3.63479 -0.34954 0.320984 3.79323 -0.368447 0.915616 3.69517 -7.88542 17.5851 -2.16083 -7.99241 34.3681 1.79497 -0.0 0.0 -0.0 -2.13134 23.4849 -0.198706 -20.9617 -10.8843 55.7378 2.52407 -51.3397 1.21327 -59.9114 -5.27173 5.09841 -4.764 11.6369 -26.4426 -0.0 0.0 -0.0 13.826 26.6483 -27.515 -3.31459 28.1575 -64.3757 0.532531 14.7781 -0.0690608 46.6059 0.736684 5.7461 1.28137 -16.9063 -14.8791 0.0 0.0 0.0 1.24876 31.3563 -5.40599 -22.6703 0.254373 3.44699 25.4235 1.67145 -3.39218 -14.9814 0.0 0.0 -0.0 0.0 -0.0 -9.00218 23.7753 5.93967 -13.9564 -0.318669 -2.1128 27.4821 11.0133 3.78564 -3.8032 0.0 0.0 0.0 0.0 0.0 
3535.03592532 734.003 -1498.05846247 4.01074861931 38.5021122507 -8.62411638007 -0.433525 1.36089 3.55553 -0.427205 1.13204 3.63479 -0.34954 0.320984 3.79323 -0.368447 0.915616 3.69517 -7.88542 17.5851 -2.16083 -7.99241 34.3681 1.79497 -0.0 0.0 -0.0 -2.13134 23.4849 -0.198706 -20.9617 -10.8843 55.7378 2.52407 -51.3397 1.21327 -59.9114 -5.27173 5.09841 -4.764 11.6369 -26.4426 -0.0 0.0 -0.0 13.826 26.6483 -27.515 -3.31459 28.1575 -64.3757 0.532531 14.7781 -0.0690608 46.6059 0.736684 5.7461 1.28137 -16.9063 -14.8791 0.0 0.0 0.0 1.24876 31.3563 -5.40599 -22.6703 0.254373 3.44699 25.4235 1.67145 -3.39218 -14.9814 0.0 0.0 -0.0 0.0 -0.0 -9.00218 23.7753 5.93967 -13.9564 -0.318669 -2.1128 27.4821 11.0133 3.78564 -3.8032 0.0 0.0 0.0 0.0 0.0 
3518.47972179 732.032 -1502.09450025 3.4087043788 45.3439572116 -7.47859206048 -0.316685 1.08497 3.54331 -0.310109 0.857456 3.60506 -0.250993 0.0650767 3.70493 -0.269558 0.64899 3.6483 -2.40815 16.8619 -3.5431 -1.70859 33.3476 -1.55499 -0.0 0.0 -0.0 -1.82492 23.6211 0.243259 -25.5691 -9.61361 56.1013 2.37134 -49.5854 1.09547 -61.576 -5.47937 5.14753 -4.2823 9.23623 -24.5255 -0.0 0.0 -0.0 14.1137 26.711 -28.1792 0.347511 28.8598 -65.4883 0.58257 16.0976 -0.0823818 48.0194 0.830695 5.90068 1.39631 -8.94611 -12.8266 0.0 0.0 0.0 6.14009 29.0582 -7.75814 -26.8878 0.150634 4.08575 31.5453 -2.6063 -4.09649 -13.3096 0.0 0.0 -0.0 0.0 -0.0 -10.2699 17.9194 5.70291 -11.1293 -0.295882 -1.67966 25.5334 14.1276 3.62586 -5.46489 0.0 0.0 0.0 0.0 0.0 
3502.71292293 729.903 -1503.85862679 4.1780271105 50.3667064737 -8.77494360215 -0.197145 1.11842 3.63043 -0.190249 0.885302 3.69412 -0.128002 0.0814084 3.79771 -0.14748 0.67974 3.73735 -2.15678 16.4901 -3.29134 -1.47313 32.4416 -1.40201 -0.0 0.0 -0.0 -1.741 23.5691 0.349459 -28.7141 -8.93265 56.2971 2.2515 -48.1141 1.00522 -63.0839 -5.66859 5.18679 -4.09444 8.07325 -23.8883 -0.0 0.0 -0.0 14.2204 26.7238 -28.4277 1.38207 29.2224 -65.0265 0.60833 16.7702 -0.0896697 48.5294 0.865557 5.95589 1.49255 -5.72249 -12.2623 0.0 0.0 0.0 7.99905 26.8469 -8.15951 -28.5986 0.0951858 4.34245 34.0265 -3.94021 -4.36396 -12.6613 0.0 0.0 -0.0 0.0 -0.0 -10.8597 16.1612 5.95576 -13.3646 -0.315668 -2.02205 26.0938 14.775 3.709 -5.94358 0.0 0.0 0.0 0.0 0.0 
3479.83705764 734.134 -1500.84987585 6.72263042399 58.8112250655 -11.5864468121 -0.025514 1.19212 3.63771 -0.0186634 0.958388 3.70606 0.048242 0.162241 3.82438 0.0286485 0.763766 3.75095 -2.28228 16.0624 -2.83606 -1.67694 31.3301 -0.924229 -0.0 0.0 -0.0 -1.54158 23.1933 0.563821 -32.6551 -8.20862 56.2229 2.05232 -45.4679 0.860007 -64.9161 -5.8997 5.22774 -3.8373 6.68847 -22.865 -0.0 0.0 -0.0 14.4689 26.755 -29.0073 3.83371 30.0739 -64.7603 0.688038 18.8209 -0.114034 49.1827 0.910922 6.02615 1.63961 -1.54354 -11.6359 0.0 0.0 0.0 10.1742 23.5748 -8.70246 -31.0018 0.00439405 4.70006 36.8019 -5.45249 -4.65198 -11.89 0.0 0.0 -0.0 0.0 -0.0 -11.5423 14.4579 6.29607 -16.0342 -0.32178 -2.43156 26.8625 15.7019 3.82483 -6.47992 0.0 0.0 0.0 0.0 0.0 
3473.6983405 725.413 -1496.22305253 6.81007892184 61.1289345865 -12.0390947564 0.0750723 1.25683 3.76336 0.082378 1.01499 3.83556 0.155373 0.198061 3.96245 0.134406 0.820897 3.88167 -2.4325 15.9561 -2.67287 -1.8617 31.0321 -0.719657 -0.0 0.0 -0.0 -1.41464 23.1099 0.726031 -33.8501 -7.9997 56.2304 1.96088 -44.1629 0.795557 -65.4447 -5.9666 5.23817 -3.74431 6.29439 -22.4281 -0.0 0.0 -0.0 14.3917 26.7267 -28.8294 6.24809 30.8335 -64.1566 0.752464 20.4428 -0.135682 49.3783 0.924664 6.04709 1.70527 -0.172858 -11.5378 0.0 0.0 0.0 12.3577 21.8073 -9.7957 -31.152 -0.00177809 4.72228 37.5746 -5.8875 -4.7302 -11.6976 0.0 0.0 -0.0 0.0 -0.0 -11.7992 14.167 7.12784 -16.7318 -0.320232 -2.53859 27.1331 16.0139 3.86545 -6.60752 0.0 0.0 0.0 0.0 0.0 
3473.42120806 725.413 -1494.8806334 6.9787292236 61.8859996747 -12.2309829792 0.0750723 1.25683 3.76336 0.082378 1.01499 3.83556 0.155373 0.198061 3.96245 0.134406 0.820897 3.88167 -2.4325 15.9561 -2.67287 -1.8617 31.0321 -0.719657 -0.0 0.0 -0.0 -1.41464 23.1099 0.726031 -33.8501 -7.9997 56.2304 1.96088 -44.1629 0.795557 -65.4447 -5.9666 5.23817 -3.74431 6.29439 -22.4281 -0.0 0.0 -0.0 14.3917 26.7267 -28.8294 6.24809 30.8335 -64.1566 0.752464 20.4428 -0.135682 49.3783 0.924664 6.04709 1.70527 -0.172858 -11.5378 0.0 0.0 0.0 12.3577 21.8073 -9.7957 -31.152 -0.00177809 4.72228 37.5746 -5.8875 -4.7302 -11.6976 0.0 0.0 -0.0 0.0 -0.0 -11.7992 14.167 7.12784 -16.7318 -0.320232 -2.53859 27.1331 16.0139 3.86545 -6.60752 0.0 0.0 0.0 0.0 0.0 
3469.14080391 723.133 -1494.04598484 5.80487702394 63.5176880663 -10.6559593005 0.159345 1.06851 4.17211 0.16867 0.801103 4.2315 0.233242 -0.0880196 4.30563 0.20787 0.592449 4.26566 -5.87167 16.4521 -1.81692 -5.71343 31.7689 1.24632 -0.0 0.0 -0.0 -1.11859 22.7156 1.07816 -36.2528 -7.95148 56.1915 1.54058 -37.3469 0.520691 -65.97 -6.03315 5.24792 -3.4512 5.8305 -20.6154 -0.0 0.0 -0.0 14.3269 26.8736 -28.6577 10.7277 32.5283 -64.5156 1.0445 27.357 -0.254212 49.9487 0.965136 6.10788 1.85299 2.21817 -11.5805 0.0 0.0 0.0 17.1379 16.9936 -10.4436 -26.6303 0.158314 4.04698 31.6089 -5.90263 -4.1456 -12.9071 0.0 0.0 -0.0 0.0 -0.0 -11.7153 12.7184 6.20736 -15.5483 -0.322088 -2.35701 29.9174 17.9954 4.24855 -6.45706 0.0 0.0 0.0 0.0 0.0 
3465.72450322 730.162 -1491.68730459 4.89582426209 63.9230157375 -9.62297260666 0.110914 1.01834 4.43355 0.121547 0.734453 4.48921 0.185126 -0.210452 4.54391 0.156685 0.509066 4.52026 -7.78364 16.5941 -1.2474 -7.87066 31.8651 2.42916 -0.0 0.0 -0.0 -1.04959 23.1259 1.23163 -37.3588 -7.81492 56.5382 1.41657 -35.0565 0.447432 -66.1129 -6.05128 5.25047 -3.34888 6.01566 -19.7978 -0.0 0.0 -0.0 14.0584 26.7158 -28.0492 11.9312 33.0479 -64.0443 1.15705 29.8189 -0.308081 50.2517 0.986885 6.14001 1.92023 3.23266 -11.6248 0.0 0.0 0.0 20.0763 14.7725 -11.1276 -24.3657 0.218329 3.70465 29.0406 -5.91739 -3.87096 -13.412 0.0 0.0 -0.0 0.0 -0.0 -11.4798 12.3584 6.22313 -15.1948 -0.321915 -2.30277 30.9184 18.9093 4.39265 -6.37335 0.0 0.0 0.0 0.0 0.0 
